<?xml version="1.0" encoding="utf-8"?>
<!-- Generator: Adobe Illustrator 22.1.0, SVG Export Plug-In . SVG Version: 6.00 Build 0)  -->
<svg xmlns:xlink="http://www.w3.org/1999/xlink" version="1.1" id="Livello_1" xmlns="http://www.w3.org/2000/svg" x="0px"
     y="0px"
     viewBox="0 0 48 48" style="enable-background:new 0 0 48 48;" xml:space="preserve">
<style type="text/css">
	.st0{fill:#032A2E;}
	.st1{fill:#38B2AC;}
</style>
    <rect class="st0" width="48" height="48"/>
    <g>
	<path class="st1" d="M24,36.2h-1.3c-0.2,0-0.3,0-0.4-0.1c-0.1-0.1-0.2-0.2-0.2-0.3l-2.8-7.2H7.6l-2.8,7.2c0,0.1-0.1,0.2-0.2,0.3
		c-0.1,0.1-0.2,0.1-0.4,0.1H2.9l9.7-24.7h1.7L24,36.2z M8.2,27.2h10.6l-4.8-12.5c-0.1-0.2-0.2-0.4-0.2-0.7s-0.2-0.5-0.2-0.8
		c-0.1,0.3-0.2,0.5-0.2,0.8c-0.1,0.3-0.2,0.5-0.2,0.7L8.2,27.2z"/>
        <path class="st1" d="M30,25v11.2h-1.7V11.5h6c2.7,0,4.8,0.6,6.1,1.7c1.3,1.1,2,2.7,2,4.8c0,0.9-0.2,1.8-0.5,2.6s-0.8,1.5-1.3,2.1
		c-0.6,0.6-1.3,1.1-2.1,1.5c-0.8,0.4-1.8,0.6-2.8,0.7c0.3,0.2,0.5,0.4,0.7,0.7l8.2,10.7h-1.5c-0.2,0-0.3,0-0.5-0.1
		c-0.1-0.1-0.3-0.2-0.4-0.3l-7.6-10c-0.2-0.3-0.4-0.4-0.6-0.5s-0.6-0.2-1-0.2H30z M30,23.7h4.1c1,0,2-0.1,2.8-0.4
		c0.8-0.3,1.5-0.6,2.1-1.1c0.6-0.5,1-1.1,1.3-1.8c0.3-0.7,0.5-1.5,0.5-2.3c0-1.8-0.6-3.1-1.7-3.9c-1.1-0.8-2.7-1.3-4.8-1.3H30V23.7z
		"/>
</g>
</svg>
